<svg width="59" height="37" viewBox="0 0 59 37" fill="none" xmlns="http://www.w3.org/2000/svg">
<path d="M57.2917 10.6403H53.6667V7.0153C53.6667 6.69483 53.5394 6.38749 53.3128 6.16088C53.0862 5.93427 52.7788 5.80697 52.4583 5.80697H48.8333V2.18197C48.8333 1.8615 48.706 1.55415 48.4794 1.32755C48.2528 1.10094 47.9455 0.973633 47.625 0.973633H1.70833C1.38786 0.973633 1.08052 1.10094 0.853913 1.32755C0.627306 1.55415 0.5 1.8615 0.5 2.18197L0.5 26.1311C0.5 26.4516 0.627306 26.7589 0.853913 26.9856C1.08052 27.2122 1.38786 27.3395 1.70833 27.3395H5.33333V30.9645C5.33333 31.2849 5.46064 31.5923 5.68725 31.8189C5.91385 32.0455 6.2212 32.1728 6.54167 32.1728H10.1667V35.7978C10.1667 36.1183 10.294 36.4256 10.5206 36.6522C10.7472 36.8788 11.0545 37.0061 11.375 37.0061H57.2917C57.6121 37.0061 57.9195 36.8788 58.1461 36.6522C58.3727 36.4256 58.5 36.1183 58.5 35.7978V11.8486C58.5 11.5282 58.3727 11.2208 58.1461 10.9942C57.9195 10.7676 57.6121 10.6403 57.2917 10.6403ZM38.6833 24.9228H10.65C10.383 22.9659 9.48229 21.1503 8.08572 19.7537C6.68916 18.3572 4.87358 17.4565 2.91667 17.1895V11.1236C4.87358 10.8566 6.68916 9.95592 8.08572 8.55936C9.48229 7.16279 10.383 5.34721 10.65 3.3903H38.6833C38.9504 5.34721 39.851 7.16279 41.2476 8.55936C42.6442 9.95592 44.4598 10.8566 46.4167 11.1236V17.1895C44.4598 17.4565 42.6442 18.3572 41.2476 19.7537C39.851 21.1503 38.9504 22.9659 38.6833 24.9228ZM46.4167 19.6061V24.9228H41.0758C41.3263 23.6015 41.9703 22.3867 42.9234 21.4379C43.8766 20.4891 45.0942 19.8506 46.4167 19.6061ZM46.4167 3.3903V8.73113C45.0909 8.48507 43.8709 7.84298 42.9174 6.88953C41.964 5.93608 41.3219 4.71604 41.0758 3.3903H46.4167ZM2.91667 3.3903H8.2575C8.01144 4.71604 7.36935 5.93608 6.4159 6.88953C5.46245 7.84298 4.24241 8.48507 2.91667 8.73113V3.3903ZM2.91667 19.6061C4.23912 19.8506 5.45678 20.4891 6.40989 21.4379C7.363 22.3867 8.00704 23.6015 8.2575 24.9228H2.91667V19.6061ZM7.75 27.3636H47.625C47.9455 27.3636 48.2528 27.2363 48.4794 27.0097C48.706 26.7831 48.8333 26.4758 48.8333 26.1553V8.22363H51.25V29.7561H7.75V27.3636ZM56.0833 34.6136H12.5833V32.197H52.4583C52.7788 32.197 53.0862 32.0697 53.3128 31.8431C53.5394 31.6164 53.6667 31.3091 53.6667 30.9886V13.057H56.0833V34.6136Z" fill="white"/>
<path d="M24.6667 5.9519C23.0463 5.9519 21.4624 6.43239 20.1152 7.33259C18.7679 8.23279 17.7179 9.51229 17.0978 11.0093C16.4777 12.5063 16.3155 14.1535 16.6316 15.7427C16.9477 17.3319 17.728 18.7916 18.8737 19.9374C20.0194 21.0831 21.4792 21.8634 23.0684 22.1795C24.6576 22.4956 26.3048 22.3334 27.8018 21.7133C29.2988 21.0932 30.5783 20.0432 31.4785 18.6959C32.3787 17.3487 32.8592 15.7647 32.8592 14.1444C32.8528 11.9736 31.9876 9.89349 30.4526 8.35848C28.9176 6.82346 26.8375 5.95828 24.6667 5.9519ZM24.6667 19.9202C23.5243 19.9202 22.4076 19.5815 21.4578 18.9468C20.508 18.3122 19.7677 17.4101 19.3305 16.3547C18.8933 15.2993 18.779 14.138 19.0018 13.0176C19.2247 11.8972 19.7748 10.868 20.5825 10.0603C21.3903 9.25251 22.4195 8.70241 23.5399 8.47955C24.6603 8.25669 25.8216 8.37107 26.877 8.80823C27.9324 9.24539 28.8344 9.98569 29.4691 10.9355C30.1038 11.8854 30.4425 13.0021 30.4425 14.1444C30.4457 14.9049 30.2986 15.6586 30.0098 16.3621C29.721 17.0657 29.296 17.7053 28.7594 18.2442C28.2227 18.7831 27.5849 19.2107 26.8826 19.5024C26.1802 19.7942 25.4272 19.9444 24.6667 19.9444V19.9202Z" fill="white"/>
</svg>
