<svg width="65" height="65" viewBox="0 0 65 65" fill="none" xmlns="http://www.w3.org/2000/svg">
<path d="M17.5 22.9736C18.0523 22.9736 18.5 22.5259 18.5 21.9736C18.5 21.4213 18.0523 20.9736 17.5 20.9736C16.9477 20.9736 16.5 21.4213 16.5 21.9736C16.5 22.5259 16.9477 22.9736 17.5 22.9736Z" fill="white"/>
<path d="M27.5 22.9736C28.0523 22.9736 28.5 22.5259 28.5 21.9736C28.5 21.4213 28.0523 20.9736 27.5 20.9736C26.9477 20.9736 26.5 21.4213 26.5 21.9736C26.5 22.5259 26.9477 22.9736 27.5 22.9736Z" fill="white"/>
<path d="M26.5 28.9736H24.5C24.5 30.0766 23.603 30.9736 22.5 30.9736C21.397 30.9736 20.5 30.0766 20.5 28.9736H18.5C18.5 31.1796 20.294 32.9736 22.5 32.9736C24.706 32.9736 26.5 31.1796 26.5 28.9736Z" fill="white"/>
<path d="M59.5 41.9736V60.9736C59.5 61.5256 59.052 61.9736 58.5 61.9736H46.5C45.948 61.9736 45.5 61.5256 45.5 60.9736V59.9736C47.154 59.9736 48.5 58.6276 48.5 56.9736V55.7736C50.806 55.2396 52.74 53.5766 53.543 51.2766C54.842 47.5496 55.5 42.7376 55.5 36.9736C55.5 31.2096 54.842 26.3976 53.543 22.6706C52.562 19.8616 49.905 17.9736 46.93 17.9736H40.5C39.37 17.9736 38.338 18.3646 37.5 18.9996V14.0726C37.5 10.7676 35.234 7.88463 32.062 7.07663C29.423 3.83163 25.52 1.97363 21.332 1.97363C13.705 1.97363 7.5 8.17863 7.5 15.8056V23.9736C7.5 26.4366 9.294 28.4766 11.678 28.8866C12.215 31.9326 14.004 34.5486 16.5 36.1806V38.2526L6.286 41.6586C3.424 42.6116 1.5 45.2806 1.5 48.2976V55.9736H40.5V56.9736C40.5 58.6276 41.846 59.9736 43.5 59.9736V60.9736C43.5 62.6276 44.846 63.9736 46.5 63.9736H58.5C60.154 63.9736 61.5 62.6276 61.5 60.9736V41.9736C61.5 41.4216 61.948 40.9736 62.5 40.9736H63.5V38.9736H62.5C60.846 38.9736 59.5 40.3196 59.5 41.9736ZM51.654 23.3286C52.496 25.7446 53.5 30.0736 53.5 36.9736C53.5 43.8736 52.496 48.2026 51.654 50.6186C50.954 52.6246 49.056 53.9736 46.93 53.9736H43.5V43.9736H44.5C46.154 43.9736 47.5 42.6276 47.5 40.9736V32.9736C47.5 31.3196 46.154 29.9736 44.5 29.9736H43.5V19.9736H46.93C49.056 19.9736 50.954 21.3226 51.654 23.3286ZM22.5 45.2756L23.5 46.1086V53.9736H21.5V46.1086L22.5 45.2756ZM33.322 28.8906C34.173 28.7486 34.943 28.3886 35.591 27.8726C36.017 30.2006 38.051 31.9736 40.5 31.9736H44.5C45.052 31.9736 45.5 32.4216 45.5 32.9736V40.9736C45.5 41.5256 45.052 41.9736 44.5 41.9736H40.5C40.21 41.9736 39.931 42.0116 39.654 42.0596C39.348 41.9046 39.035 41.7656 38.713 41.6586L28.5 38.2526V36.1806C30.995 34.5496 32.783 31.9356 33.322 28.8906ZM33.5 21.1576C34.661 21.5716 35.5 22.6716 35.5 23.9736C35.5 25.2756 34.661 26.3756 33.5 26.7896V21.1576ZM27.77 40.1176L29.328 40.6366L27.88 47.1546L23.982 43.9056L27.77 40.1176ZM25.5 47.7756L29.12 50.7926L31.236 41.2736L37.188 43.2576C36.16 44.1736 35.5 45.4926 35.5 46.9736V50.9736C35.5 52.1036 35.891 53.1356 36.526 53.9736H25.5V47.7756ZM37.5 50.9736V46.9736C37.5 45.3196 38.846 43.9736 40.5 43.9736H41.5V53.9736H40.5C38.846 53.9736 37.5 52.6276 37.5 50.9736ZM40.5 19.9736H41.5V29.9736H40.5C38.846 29.9736 37.5 28.6276 37.5 26.9736V23.9736V22.9736C37.5 21.3196 38.846 19.9736 40.5 19.9736ZM9.5 23.9736C9.5 22.6716 10.339 21.5716 11.5 21.1576V26.7886C10.339 26.3756 9.5 25.2756 9.5 23.9736ZM11.692 19.0556C10.876 19.1896 10.133 19.5196 9.5 19.9996V15.8056C9.5 9.28163 14.808 3.97363 21.332 3.97363C24.946 3.97363 28.314 5.59263 30.573 8.41563L30.948 8.88263L31.303 8.95363C33.735 9.44063 35.5 11.5926 35.5 14.0726V19.9996C34.867 19.5206 34.124 19.1896 33.308 19.0556C32.68 16.7096 30.541 14.9736 28 14.9736C26.817 14.9736 25.646 15.3646 24.7 16.0746L22.5 17.7236L20.301 16.0746C19.354 15.3646 18.183 14.9736 17 14.9736C14.459 14.9736 12.32 16.7096 11.692 19.0556ZM13.5 26.9736V20.4736C13.5 18.5436 15.07 16.9736 17 16.9736C17.753 16.9736 18.498 17.2226 19.101 17.6736L22.5 20.2236L25.9 17.6736C26.502 17.2226 27.247 16.9736 28 16.9736C29.93 16.9736 31.5 18.5436 31.5 20.4736V26.9736C31.5 31.9366 27.463 35.9736 22.5 35.9736C17.537 35.9736 13.5 31.9366 13.5 26.9736ZM22.5 37.9736C23.912 37.9736 25.258 37.6966 26.5 37.2096V38.5596L22.5 42.5596L18.5 38.5596V37.2096C19.742 37.6966 21.088 37.9736 22.5 37.9736ZM17.23 40.1176L21.019 43.9066L17.121 47.1556L15.673 40.6376L17.23 40.1176ZM3.5 48.2976C3.5 46.1426 4.874 44.2356 6.919 43.5546L13.764 41.2726L15.88 50.7916L19.5 47.7756V53.9736H11.5V46.9736H9.5V53.9736H3.5V48.2976ZM42.5 56.9736V55.9736H46.5V56.9736C46.5 57.5256 46.052 57.9736 45.5 57.9736H43.5C42.948 57.9736 42.5 57.5256 42.5 56.9736Z" fill="white"/>
<path d="M63.5 34.9736H57.5V36.9736H63.5V34.9736Z" fill="white"/>
<path d="M63.5 30.9736H57.5V32.9736H63.5V30.9736Z" fill="white"/>
<path d="M62.5 12.9736C60.846 12.9736 59.5 14.3196 59.5 15.9736V25.9736C59.5 26.5256 59.052 26.9736 58.5 26.9736H57.5V28.9736H58.5C60.154 28.9736 61.5 27.6276 61.5 25.9736V15.9736C61.5 15.4216 61.948 14.9736 62.5 14.9736H63.5V12.9736H62.5Z" fill="white"/>
</svg>
