<svg width="60" height="61" viewBox="0 0 60 61" fill="none" xmlns="http://www.w3.org/2000/svg">
<path d="M48.5484 37.9915L48.5476 37.9907L48.547 37.9898C48.2476 37.6556 47.8622 37.4099 47.4329 37.2796L31.207 32.3754C30.4208 32.1357 29.5811 32.1356 28.7948 32.3752L12.5674 37.28C12.1383 37.4103 11.7533 37.6558 11.4542 37.9898L11.4535 37.9907L11.4527 37.9915C11.0546 38.4382 10.8346 39.0157 10.8344 39.6141V52.5165C10.8323 53.0401 10.9997 53.5503 11.3117 53.9708C11.6236 54.3913 12.0633 54.6996 12.565 54.8495L28.7881 59.7765C29.1808 59.8965 29.5893 59.9574 30 59.9572C30.0562 59.957 30.1122 59.9495 30.1664 59.9348C30.165 59.9402 30.1643 59.9459 30.163 59.9512C30.5183 59.9386 30.8704 59.88 31.2106 59.7768L47.4478 54.8452C47.9464 54.6933 48.3828 54.3846 48.6922 53.9652C49.0016 53.5457 49.1675 53.0377 49.1655 52.5165V39.6141C49.1657 39.0158 48.9461 38.4384 48.5484 37.9915ZM29.3555 58.5948C29.2912 58.58 29.2273 58.5628 29.164 58.5434L12.9396 53.616C12.7031 53.5454 12.4958 53.4002 12.3486 53.202C12.2015 53.0038 12.1225 52.7633 12.1234 52.5165V39.6141C12.1234 39.4641 12.1529 39.3157 12.21 39.1771L29.0046 44.2783L29.0658 44.2968L29.3555 44.3848V58.5948ZM30 43.2334L13.7029 38.2833L29.1687 33.6088C29.7113 33.4436 30.2909 33.4437 30.8335 33.6091L46.2981 38.2833L41.2211 39.8253L33.6301 37.5374C33.5472 37.5117 33.4586 37.5108 33.3752 37.5351L29.5485 38.6217C29.4995 38.6357 29.4563 38.6651 29.4255 38.7057C29.3946 38.7463 29.3777 38.7957 29.3773 38.8467C29.3769 38.8976 29.393 38.9473 29.4232 38.9884C29.4534 39.0294 29.4961 39.0596 29.5449 39.0744L36.6563 41.2118L30 43.2334ZM47.8765 52.5165C47.8777 52.7615 47.7999 53.0004 47.6548 53.1978C47.5097 53.3952 47.3048 53.5406 47.0706 53.6126L30.8342 58.5439C30.7716 58.5632 30.7084 58.5802 30.6445 58.5949V44.3849L37.7452 42.2283V47.5045C37.7452 47.5747 37.7614 47.6439 37.7925 47.7068C37.8236 47.7697 37.8689 47.8245 37.9246 47.8671C37.9804 47.9096 38.0453 47.9387 38.1142 47.9521C38.1831 47.9654 38.2541 47.9627 38.3218 47.9442L41.9983 46.9315C42.0946 46.905 42.1795 46.8477 42.24 46.7682C42.3005 46.6888 42.3332 46.5917 42.3331 46.4919V40.9782C42.3332 40.9312 42.3302 40.8843 42.3242 40.8377V40.8375L47.8764 39.1512L47.8765 52.5165Z" fill="white"/>
<path d="M31.7478 56.5899L36.8604 54.9445V53.634L31.7478 55.2793V56.5899Z" fill="white"/>
<path d="M31.7478 54.1907L36.8604 52.5454V51.2349L31.7478 52.8802V54.1907Z" fill="white"/>
<path d="M28.4532 28.4932C28.9073 28.7676 29.4276 28.9126 29.9581 28.9126C30.4886 28.9126 31.009 28.7676 31.463 28.4932C34.483 26.6718 40.9945 21.4062 40.9798 9.86921C40.9815 9.46083 40.8292 9.06683 40.5532 8.7658C40.2772 8.46478 39.8979 8.27885 39.4909 8.24512C37.5102 8.0954 33.9058 7.29121 31.3387 3.65203C31.1831 3.43028 30.9765 3.24927 30.7362 3.1243C30.4959 2.99933 30.229 2.93408 29.9581 2.93408C29.6873 2.93408 29.4204 2.99933 29.1801 3.1243C28.9398 3.24927 28.7331 3.43028 28.5776 3.65203C26.0105 7.29121 22.406 8.09541 20.4253 8.24512C20.0183 8.27883 19.639 8.46475 19.363 8.76578C19.087 9.06681 18.9347 9.46082 18.9363 9.86921C18.9217 21.4062 25.4332 26.6718 28.4532 28.4932ZM22.3741 10.6951C25.0565 10.2173 27.5133 8.88725 29.3798 6.90232C29.454 6.82334 29.5436 6.76041 29.6431 6.71738C29.7425 6.67436 29.8497 6.65217 29.9581 6.65217C30.0665 6.65217 30.1737 6.67436 30.2732 6.71738C30.3726 6.76041 30.4622 6.82334 30.5364 6.90232C32.4028 8.88732 34.8597 10.2174 37.5421 10.6951C37.7335 10.7302 37.9056 10.8339 38.0262 10.9866C38.1467 11.1394 38.2075 11.3309 38.1972 11.5252C37.7057 20.539 32.4961 24.659 30.1918 26.0488C30.1215 26.0917 30.0407 26.1145 29.9583 26.1145C29.8759 26.1145 29.795 26.0919 29.7247 26.0489C27.4202 24.659 22.2106 20.5389 21.7191 11.5252C21.7087 11.3309 21.7695 11.1394 21.8901 10.9866C22.0106 10.8339 22.1827 10.7302 22.3741 10.6951Z" fill="white"/>
<path d="M30.0044 20.7457C31.1597 20.7447 32.2709 20.3017 33.1101 19.5076C33.9493 18.7135 34.4528 17.6284 34.5175 16.4749H33.09C33.0416 17.0746 32.8195 17.6473 32.4509 18.1228C32.0822 18.5983 31.583 18.9561 31.0142 19.1524C30.4454 19.3487 29.8318 19.375 29.2483 19.2281C28.6648 19.0812 28.1368 18.7674 27.7288 18.3252C27.3208 17.8829 27.0506 17.3314 26.9511 16.738C26.8516 16.1446 26.9271 15.535 27.1685 14.9839C27.41 14.4328 27.8067 13.9639 28.3104 13.6347C28.814 13.3055 29.4027 13.1302 30.0044 13.1302V11.7053C29.4101 11.7044 28.8216 11.8206 28.2723 12.0473C27.7231 12.274 27.2239 12.6069 26.8034 13.0267C26.3829 13.4465 26.0493 13.9451 25.8217 14.494C25.594 15.0429 25.4769 15.6313 25.4769 16.2255C25.4769 16.8197 25.594 17.4081 25.8217 17.957C26.0493 18.5059 26.3829 19.0045 26.8034 19.4243C27.2239 19.8442 27.7231 20.177 28.2723 20.4037C28.8216 20.6304 29.4101 20.7467 30.0044 20.7457Z" fill="white"/>
<path d="M28.7535 14.7414L27.6062 15.7901L29.3144 17.659C29.3867 17.738 29.4745 17.8013 29.5723 17.8448C29.6702 17.8883 29.776 17.9112 29.883 17.9119H29.8881C29.9944 17.9119 30.0995 17.8901 30.197 17.8479C30.2944 17.8057 30.3823 17.7439 30.455 17.6665L34.0814 13.8012L32.9476 12.7375L29.8955 15.9908L28.7535 14.7414Z" fill="white"/>
</svg>
