<svg width="59" height="52" viewBox="0 0 59 52" fill="none" xmlns="http://www.w3.org/2000/svg">
<g clip-path="url(#clip0_8_70)">
<path d="M45.508 19.2141C45.1709 18.771 44.6054 18.5049 44 18.5049H42.1875C41.1852 18.5049 40.375 19.2173 40.375 20.0986V29.6611C40.375 30.5425 41.1852 31.2549 42.1875 31.2549H49.4375C50.4398 31.2549 51.25 30.5425 51.25 29.6611V27.2705C51.25 26.9565 51.1431 26.6474 50.9455 26.386L45.508 19.2141ZM49.4375 29.6611H42.1875V20.0986H44L49.4375 27.2705V29.6611Z" fill="white"/>
<path d="M57.5865 25.4154L50.3365 15.8529C49.3251 14.5189 47.6323 13.7236 45.8125 13.7236H38.5625V10.5361C38.5625 7.90007 36.1229 5.75488 33.125 5.75488H5.9375C2.93963 5.75488 0.5 7.90007 0.5 10.5361V28.0674C0.5 30.7034 2.93963 32.8486 5.9375 32.8486V37.6299C5.9375 40.2659 8.37712 42.4111 11.375 42.4111H13.4449C14.2551 45.154 17.0699 47.1924 20.4393 47.1924C23.8051 47.1924 26.6199 45.154 27.4301 42.4111H37.0037C37.8139 45.154 40.6287 47.1924 43.9982 47.1924C47.364 47.1924 50.1788 45.154 50.989 42.4111H53.0625C56.0604 42.4111 58.5 40.2659 58.5 37.6299V28.0674C58.5 27.1207 58.1846 26.2027 57.5865 25.4154ZM5.9375 29.6611C4.937 29.6611 4.125 28.9487 4.125 28.0674V10.5361C4.125 9.65479 4.937 8.94238 5.9375 8.94238H33.125C34.1273 8.94238 34.9375 9.65479 34.9375 10.5361V13.7236V16.9111V28.0674C34.9375 28.9487 34.1273 29.6611 33.125 29.6611H5.9375ZM20.4393 44.0049C18.4365 44.0049 16.8143 42.5769 16.8143 40.8174C16.8143 39.0579 18.4365 37.6299 20.4393 37.6299C22.4403 37.6299 24.0643 39.0579 24.0643 40.8174C24.0643 42.5769 22.4385 44.0049 20.4393 44.0049ZM44 44.0049C41.9972 44.0049 40.375 42.5769 40.375 40.8174C40.375 39.0579 41.9972 37.6299 44 37.6299C46.001 37.6299 47.625 39.0579 47.625 40.8174C47.625 42.5769 46.001 44.0049 44 44.0049ZM54.875 37.6299C54.875 38.5112 54.0648 39.2236 53.0625 39.2236H50.9908C50.1806 36.4808 47.3658 34.4424 44 34.4424C40.6306 34.4424 37.8158 36.4808 37.0056 39.2236H27.4319C26.6217 36.4808 23.8069 34.4424 20.4411 34.4424C17.0717 34.4424 14.2569 36.4808 13.4467 39.2236H11.375C10.3745 39.2236 9.5625 38.5112 9.5625 37.6299V32.8486H33.125C36.1229 32.8486 38.5625 30.7034 38.5625 28.0674V16.9111H45.8125C46.4179 16.9111 46.9834 17.1773 47.3205 17.6204L54.5705 27.1829C54.7681 27.4442 54.875 27.7534 54.875 28.0674V37.6299Z" fill="white"/>
</g>
<defs>
<clipPath id="clip0_8_70">
<rect width="58" height="51" fill="white" transform="translate(0.5 0.973633)"/>
</clipPath>
</defs>
</svg>
